<svg width="16" height="16" viewBox="0 0 16 16" fill="none" xmlns="http://www.w3.org/2000/svg">
<path d="M11.9594 8.39688C11.9531 7.25 12.4719 6.38437 13.5219 5.74687C12.9344 4.90625 12.0469 4.44375 10.875 4.35313C9.76562 4.26562 8.55312 5 8.10938 5C7.64062 5 6.56563 4.38438 5.72187 4.38438C3.97812 4.4125 2.125 5.775 2.125 8.54688C2.125 9.36563 2.275 10.2115 2.575 11.0844C2.975 12.2313 4.41875 15.0437 5.925 14.9969C6.7125 14.9781 7.26875 14.4375 8.29375 14.4375C9.2875 14.4375 9.80312 14.9969 10.6812 14.9969C12.2 14.975 13.5062 12.4187 13.8875 11.2688C11.85 10.3094 11.9594 8.45625 11.9594 8.39688ZM10.1906 3.26562C11.0437 2.25312 10.9656 1.33125 10.9406 1C10.1875 1.04375 9.31562 1.5125 8.81875 2.09063C8.27187 2.70938 7.95 3.475 8.01875 4.3375C8.83438 4.4 9.57812 3.98125 10.1906 3.26562Z" fill="black"/>
</svg>
