<svg width="17" height="16" viewBox="0 0 17 16" fill="none" xmlns="http://www.w3.org/2000/svg">
<path d="M15.5017 8.15571C15.5017 7.58016 15.454 7.16016 15.3509 6.72461H8.64453V9.32236H12.581C12.5017 9.96793 12.0731 10.9402 11.1207 11.5935L11.1074 11.6804L13.2278 13.2902L13.3747 13.3046C14.7239 12.0835 15.5017 10.2868 15.5017 8.15571" fill="#4285F4"/>
<path d="M8.64266 15.0004C10.5712 15.0004 12.1902 14.3781 13.3728 13.3048L11.1188 11.5936C10.5157 12.0059 9.70613 12.2936 8.64266 12.2936C6.75379 12.2936 5.15064 11.0726 4.57916 9.38477L4.49539 9.39174L2.29055 11.064L2.26172 11.1425C3.43631 13.4292 5.849 15.0004 8.64266 15.0004Z" fill="#34A853"/>
<path d="M4.57933 9.38399C4.42854 8.94844 4.34127 8.48174 4.34127 7.99954C4.34127 7.51729 4.42854 7.05064 4.5714 6.61509L4.5674 6.52233L2.33493 4.82324L2.26189 4.85729C1.77778 5.80619 1.5 6.87177 1.5 7.99954C1.5 9.12732 1.77778 10.1928 2.26189 11.1417L4.57933 9.38399" fill="#FBBC05"/>
<path d="M8.6427 3.70665C9.98395 3.70665 10.8887 4.27442 11.4046 4.7489L13.4205 2.82C12.1824 1.69222 10.5712 1 8.6427 1C5.84902 1 3.43631 2.5711 2.26172 4.85775L4.57124 6.61555C5.15065 4.92777 6.75382 3.70665 8.6427 3.70665" fill="#EB4335"/>
</svg>
